<mxfile host="app.diagrams.net" agent="Mozilla/5.0 (Windows NT 10.0; Win64; x64) AppleWebKit/537.36 (KHTML, like Gecko) Chrome/135.0.0.0 Safari/537.36" version="26.2.12" pages="3">
  <diagram name="第 1 页" id="QX6baIYKUreJ2WzYbtbk">
    <mxGraphModel dx="2259" dy="1922" grid="1" gridSize="10" guides="1" tooltips="1" connect="1" arrows="1" fold="1" page="1" pageScale="1" pageWidth="827" pageHeight="1169" math="0" shadow="0">
      <root>
        <mxCell id="0" />
        <mxCell id="1" parent="0" />
        <mxCell id="ZEnR1woYkqBnwNMkH9m6-1" value="" style="rounded=1;whiteSpace=wrap;html=1;dashed=1;fontFamily=Times New Roman;" parent="1" vertex="1">
          <mxGeometry x="687" y="-339.5" width="323" height="319" as="geometry" />
        </mxCell>
        <mxCell id="ZEnR1woYkqBnwNMkH9m6-2" value="" style="rounded=1;whiteSpace=wrap;html=1;dashed=1;fontFamily=Times New Roman;" parent="1" vertex="1">
          <mxGeometry x="330" y="-339.5" width="323" height="317" as="geometry" />
        </mxCell>
        <mxCell id="ZEnR1woYkqBnwNMkH9m6-3" value="" style="rounded=1;whiteSpace=wrap;html=1;dashed=1;fontFamily=Times New Roman;" parent="1" vertex="1">
          <mxGeometry x="-20" y="-342.5" width="323" height="320" as="geometry" />
        </mxCell>
        <mxCell id="ZEnR1woYkqBnwNMkH9m6-5" style="edgeStyle=none;curved=1;rounded=0;orthogonalLoop=1;jettySize=auto;html=1;fontSize=14;startSize=8;endSize=8;endArrow=openThin;endFill=0;strokeColor=#FFB570;strokeWidth=2;fontFamily=Times New Roman;entryX=0.936;entryY=0.36;entryDx=0;entryDy=0;entryPerimeter=0;exitX=0;exitY=0.5;exitDx=0;exitDy=0;" parent="1" source="ZEnR1woYkqBnwNMkH9m6-10" target="ZEnR1woYkqBnwNMkH9m6-7" edge="1">
          <mxGeometry relative="1" as="geometry">
            <mxPoint x="100" y="-230" as="sourcePoint" />
          </mxGeometry>
        </mxCell>
        <mxCell id="ZEnR1woYkqBnwNMkH9m6-6" style="rounded=0;orthogonalLoop=1;jettySize=auto;html=1;entryX=0.5;entryY=0;entryDx=0;entryDy=0;fontSize=14;startSize=8;endSize=8;endArrow=openThin;endFill=0;strokeColor=#FFB570;strokeWidth=2;fillColor=#ffe6cc;fontFamily=Times New Roman;" parent="1" source="ZEnR1woYkqBnwNMkH9m6-7" target="ZEnR1woYkqBnwNMkH9m6-14" edge="1">
          <mxGeometry relative="1" as="geometry" />
        </mxCell>
        <mxCell id="ZEnR1woYkqBnwNMkH9m6-7" value="&lt;font&gt;USA&lt;/font&gt;" style="ellipse;whiteSpace=wrap;html=1;aspect=fixed;fillColor=#dae8fc;strokeColor=#6c8ebf;fontFamily=Times New Roman;fontSize=14;" parent="1" vertex="1">
          <mxGeometry x="28" y="-288" width="37" height="37" as="geometry" />
        </mxCell>
        <mxCell id="ZEnR1woYkqBnwNMkH9m6-9" value="&lt;span style=&quot;color: rgb(51, 51, 51); text-align: start;&quot;&gt;&lt;font&gt;Donald Trump&lt;/font&gt;&lt;/span&gt;" style="ellipse;whiteSpace=wrap;html=1;aspect=fixed;fillColor=#dae8fc;strokeColor=#6c8ebf;fontFamily=Times New Roman;fontSize=14;" parent="1" vertex="1">
          <mxGeometry x="189.5" y="-241" width="37" height="37" as="geometry" />
        </mxCell>
        <mxCell id="ZEnR1woYkqBnwNMkH9m6-10" value="&lt;span style=&quot;color: rgb(51, 51, 51); text-align: start;&quot;&gt;&lt;font&gt;Joe Biden&lt;/font&gt;&lt;/span&gt;" style="ellipse;whiteSpace=wrap;html=1;aspect=fixed;fillColor=#dae8fc;strokeColor=#6c8ebf;fontFamily=Times New Roman;fontSize=14;" parent="1" vertex="1">
          <mxGeometry x="205" y="-288.5" width="37" height="37" as="geometry" />
        </mxCell>
        <mxCell id="ZEnR1woYkqBnwNMkH9m6-11" style="rounded=0;orthogonalLoop=1;jettySize=auto;html=1;fontSize=14;startSize=8;endSize=8;endArrow=openThin;endFill=0;strokeColor=#FFB570;strokeWidth=2;entryX=0.5;entryY=1;entryDx=0;entryDy=0;fontFamily=Times New Roman;" parent="1" source="ZEnR1woYkqBnwNMkH9m6-12" target="4Hwfi5V8rL6_1j3d9u5l-13" edge="1">
          <mxGeometry relative="1" as="geometry">
            <mxPoint x="364.73338317871094" y="-230.86664199829102" as="targetPoint" />
          </mxGeometry>
        </mxCell>
        <mxCell id="ZEnR1woYkqBnwNMkH9m6-12" value="&lt;span style=&quot;color: rgb(51, 51, 51); text-align: start;&quot;&gt;&lt;font&gt;Justin Trudeau&lt;/font&gt;&lt;/span&gt;" style="ellipse;whiteSpace=wrap;html=1;aspect=fixed;fillColor=#dae8fc;strokeColor=#6c8ebf;fontFamily=Times New Roman;fontSize=14;" parent="1" vertex="1">
          <mxGeometry x="139" y="-144" width="37" height="37" as="geometry" />
        </mxCell>
        <mxCell id="ZEnR1woYkqBnwNMkH9m6-13" style="edgeStyle=none;curved=1;rounded=0;orthogonalLoop=1;jettySize=auto;html=1;fontSize=14;startSize=8;endSize=8;endArrow=openThin;endFill=0;strokeColor=#FFB570;strokeWidth=2;fontFamily=Times New Roman;" parent="1" source="ZEnR1woYkqBnwNMkH9m6-14" target="ZEnR1woYkqBnwNMkH9m6-12" edge="1">
          <mxGeometry relative="1" as="geometry" />
        </mxCell>
        <mxCell id="ZEnR1woYkqBnwNMkH9m6-14" value="&lt;font&gt;Canada&lt;/font&gt;" style="ellipse;whiteSpace=wrap;html=1;aspect=fixed;fillColor=#dae8fc;strokeColor=#6c8ebf;fontFamily=Times New Roman;fontSize=14;" parent="1" vertex="1">
          <mxGeometry x="28" y="-163.5" width="37" height="37" as="geometry" />
        </mxCell>
        <mxCell id="ZEnR1woYkqBnwNMkH9m6-15" value="&lt;font&gt;President,2016&lt;/font&gt;" style="text;html=1;align=center;verticalAlign=middle;whiteSpace=wrap;rounded=0;fontSize=14;fontFamily=Times New Roman;" parent="1" vertex="1">
          <mxGeometry x="445.5" y="-234" width="60" height="30" as="geometry" />
        </mxCell>
        <mxCell id="ZEnR1woYkqBnwNMkH9m6-17" value="&lt;font&gt;Born in,1942&lt;/font&gt;" style="text;html=1;align=center;verticalAlign=middle;whiteSpace=wrap;rounded=0;fontSize=14;fontFamily=Times New Roman;" parent="1" vertex="1">
          <mxGeometry x="70" y="-271" width="114" height="30" as="geometry" />
        </mxCell>
        <mxCell id="ZEnR1woYkqBnwNMkH9m6-18" value="&lt;font&gt;&lt;span style=&quot;white-space: pre;&quot; data-slate-fragment=&quot;JTVCJTdCJTIydHlwZSUyMiUzQSUyMnBhcmFncmFwaCUyMiUyQyUyMmNoaWxkcmVuJTIyJTNBJTVCJTdCJTIyaWQlMjIlM0ElMjJlTFo0cG95QU96JTIyJTJDJTIycGFyYUlkeCUyMiUzQTAlMkMlMjJzcmMlMjIlM0ElMjJlc3RhYmxpc2glMjBkaXBsb21hdGljJTIwcmVsYXRpb24lMjIlMkMlMjJkc3QlMjIlM0ElMjIlRTUlQkIlQkElRTclQUIlOEIlRTUlQTQlOTYlRTQlQkElQTQlRTUlODUlQjMlRTclQjMlQkIlMjIlMkMlMjJtZXRhZGF0YSUyMiUzQSUyMiUyMiUyQyUyMm1ldGFEYXRhJTIyJTNBJTVCJTVEJTJDJTIydGV4dCUyMiUzQSUyMmVzdGFibGlzaCUyMGRpcGxvbWF0aWMlMjByZWxhdGlvbiUyMiU3RCU1RCU3RCU1RA==&quot;&gt;establish diplomatic&lt;/span&gt;&lt;/font&gt;&lt;div&gt;&lt;font&gt;&lt;span style=&quot;white-space: pre;&quot; data-slate-fragment=&quot;JTVCJTdCJTIydHlwZSUyMiUzQSUyMnBhcmFncmFwaCUyMiUyQyUyMmNoaWxkcmVuJTIyJTNBJTVCJTdCJTIyaWQlMjIlM0ElMjJlTFo0cG95QU96JTIyJTJDJTIycGFyYUlkeCUyMiUzQTAlMkMlMjJzcmMlMjIlM0ElMjJlc3RhYmxpc2glMjBkaXBsb21hdGljJTIwcmVsYXRpb24lMjIlMkMlMjJkc3QlMjIlM0ElMjIlRTUlQkIlQkElRTclQUIlOEIlRTUlQTQlOTYlRTQlQkElQTQlRTUlODUlQjMlRTclQjMlQkIlMjIlMkMlMjJtZXRhZGF0YSUyMiUzQSUyMiUyMiUyQyUyMm1ldGFEYXRhJTIyJTNBJTVCJTVEJTJDJTIydGV4dCUyMiUzQSUyMmVzdGFibGlzaCUyMGRpcGxvbWF0aWMlMjByZWxhdGlvbiUyMiU3RCU1RCU3RCU1RA==&quot;&gt; relation&lt;/span&gt;,1927&lt;/font&gt;&lt;/div&gt;" style="text;html=1;align=center;verticalAlign=middle;whiteSpace=wrap;rounded=0;fontSize=14;fontFamily=Times New Roman;" parent="1" vertex="1">
          <mxGeometry x="25.5" y="-212.5" width="60" height="30" as="geometry" />
        </mxCell>
        <mxCell id="ZEnR1woYkqBnwNMkH9m6-19" value="&lt;font&gt;Prime minister,2015&lt;/font&gt;" style="text;html=1;align=center;verticalAlign=middle;whiteSpace=wrap;rounded=0;fontSize=14;fontFamily=Times New Roman;" parent="1" vertex="1">
          <mxGeometry x="53" y="-147.5" width="104" height="30" as="geometry" />
        </mxCell>
        <mxCell id="ZEnR1woYkqBnwNMkH9m6-20" value="&lt;font&gt;Interview with,2009&lt;/font&gt;" style="text;html=1;align=center;verticalAlign=middle;whiteSpace=wrap;rounded=0;fontSize=14;fontFamily=Times New Roman;" parent="1" vertex="1">
          <mxGeometry x="182" y="-144" width="60" height="30" as="geometry" />
        </mxCell>
        <mxCell id="ZEnR1woYkqBnwNMkH9m6-24" value="&lt;font&gt;USA&lt;/font&gt;" style="ellipse;whiteSpace=wrap;html=1;aspect=fixed;fillColor=#dae8fc;strokeColor=#6c8ebf;fontFamily=Times New Roman;fontSize=14;" parent="1" vertex="1">
          <mxGeometry x="487.5" y="-182.5" width="37" height="37" as="geometry" />
        </mxCell>
        <mxCell id="ZEnR1woYkqBnwNMkH9m6-25" style="rounded=0;orthogonalLoop=1;jettySize=auto;html=1;entryX=0.5;entryY=0;entryDx=0;entryDy=0;fontSize=14;startSize=8;endSize=8;endArrow=openThin;endFill=0;strokeColor=#FFB570;strokeWidth=2;fontFamily=Times New Roman;" parent="1" source="ZEnR1woYkqBnwNMkH9m6-26" target="ZEnR1woYkqBnwNMkH9m6-27" edge="1">
          <mxGeometry relative="1" as="geometry" />
        </mxCell>
        <mxCell id="ZEnR1woYkqBnwNMkH9m6-26" value="&lt;span style=&quot;color: rgb(51, 51, 51); text-align: start;&quot;&gt;&lt;font&gt;Donald Trump&lt;/font&gt;&lt;/span&gt;" style="ellipse;whiteSpace=wrap;html=1;aspect=fixed;fillColor=#dae8fc;strokeColor=#6c8ebf;fontFamily=Times New Roman;fontSize=14;" parent="1" vertex="1">
          <mxGeometry x="495.5" y="-276.5" width="37" height="37" as="geometry" />
        </mxCell>
        <mxCell id="ZEnR1woYkqBnwNMkH9m6-27" value="&lt;span style=&quot;color: rgb(51, 51, 51); text-align: start;&quot;&gt;&lt;font&gt;Joe Biden&lt;/font&gt;&lt;/span&gt;" style="ellipse;whiteSpace=wrap;html=1;aspect=fixed;fillColor=#dae8fc;strokeColor=#6c8ebf;fontFamily=Times New Roman;fontSize=14;" parent="1" vertex="1">
          <mxGeometry x="554" y="-200.5" width="37" height="37" as="geometry" />
        </mxCell>
        <mxCell id="ZEnR1woYkqBnwNMkH9m6-28" style="rounded=0;orthogonalLoop=1;jettySize=auto;html=1;fontSize=14;startSize=8;endSize=8;endArrow=openThin;endFill=0;strokeColor=#FFB570;strokeWidth=2;entryX=0.5;entryY=1;entryDx=0;entryDy=0;fontFamily=Times New Roman;" parent="1" source="ZEnR1woYkqBnwNMkH9m6-29" target="ZEnR1woYkqBnwNMkH9m6-27" edge="1">
          <mxGeometry relative="1" as="geometry">
            <mxPoint x="677.2333831787109" y="-180.86664199829102" as="targetPoint" />
          </mxGeometry>
        </mxCell>
        <mxCell id="ZEnR1woYkqBnwNMkH9m6-29" value="&lt;span style=&quot;color: rgb(51, 51, 51); text-align: start;&quot;&gt;&lt;font&gt;Justin Trudeau&lt;/font&gt;&lt;/span&gt;" style="ellipse;whiteSpace=wrap;html=1;aspect=fixed;fillColor=#dae8fc;strokeColor=#6c8ebf;fontFamily=Times New Roman;fontSize=14;" parent="1" vertex="1">
          <mxGeometry x="546.5" y="-118" width="37" height="37" as="geometry" />
        </mxCell>
        <mxCell id="ZEnR1woYkqBnwNMkH9m6-30" style="edgeStyle=none;curved=1;rounded=0;orthogonalLoop=1;jettySize=auto;html=1;fontSize=14;startSize=8;endSize=8;endArrow=openThin;endFill=0;strokeColor=#FFB570;strokeWidth=2;fontFamily=Times New Roman;" parent="1" source="ZEnR1woYkqBnwNMkH9m6-31" target="ZEnR1woYkqBnwNMkH9m6-29" edge="1">
          <mxGeometry relative="1" as="geometry" />
        </mxCell>
        <mxCell id="ZEnR1woYkqBnwNMkH9m6-31" value="&lt;font&gt;Canada&lt;/font&gt;" style="ellipse;whiteSpace=wrap;html=1;aspect=fixed;fillColor=#dae8fc;strokeColor=#6c8ebf;fontFamily=Times New Roman;fontSize=14;" parent="1" vertex="1">
          <mxGeometry x="417" y="-121" width="37" height="37" as="geometry" />
        </mxCell>
        <mxCell id="ZEnR1woYkqBnwNMkH9m6-33" value="&lt;font&gt;Successor,2021&lt;/font&gt;" style="text;html=1;align=center;verticalAlign=middle;whiteSpace=wrap;rounded=0;fontSize=14;fontFamily=Times New Roman;" parent="1" vertex="1">
          <mxGeometry x="542.5" y="-242.5" width="60" height="30" as="geometry" />
        </mxCell>
        <mxCell id="ZEnR1woYkqBnwNMkH9m6-36" value="&lt;font&gt;Prime minister,2021&lt;/font&gt;" style="text;html=1;align=center;verticalAlign=middle;whiteSpace=wrap;rounded=0;fontSize=14;fontFamily=Times New Roman;" parent="1" vertex="1">
          <mxGeometry x="450" y="-98.5" width="104" height="30" as="geometry" />
        </mxCell>
        <mxCell id="ZEnR1woYkqBnwNMkH9m6-37" value="&lt;font style=&quot;font-size: 14px;&quot;&gt;President,&amp;nbsp;&lt;/font&gt;&lt;div&gt;&lt;font style=&quot;font-size: 14px;&quot;&gt;2023&lt;/font&gt;&lt;/div&gt;" style="text;html=1;align=center;verticalAlign=middle;whiteSpace=wrap;rounded=0;fontSize=16;fontFamily=Times New Roman;" parent="1" vertex="1">
          <mxGeometry x="381" y="-163.5" width="124.5" height="30" as="geometry" />
        </mxCell>
        <mxCell id="ZEnR1woYkqBnwNMkH9m6-38" value="&lt;font style=&quot;font-size: 14px;&quot;&gt;Interview with,2021&lt;/font&gt;" style="text;html=1;align=center;verticalAlign=middle;whiteSpace=wrap;rounded=0;fontSize=16;fontFamily=Times New Roman;" parent="1" vertex="1">
          <mxGeometry x="538" y="-151" width="60" height="30" as="geometry" />
        </mxCell>
        <mxCell id="ZEnR1woYkqBnwNMkH9m6-39" style="rounded=0;orthogonalLoop=1;jettySize=auto;html=1;fontSize=14;startSize=8;endSize=8;endArrow=openThin;endFill=0;strokeColor=#FFB570;strokeWidth=2;dashed=1;fontFamily=Times New Roman;entryX=1.03;entryY=0.6;entryDx=0;entryDy=0;exitX=0.026;exitY=0.226;exitDx=0;exitDy=0;exitPerimeter=0;entryPerimeter=0;" parent="1" target="ZEnR1woYkqBnwNMkH9m6-40" edge="1" source="ZEnR1woYkqBnwNMkH9m6-24">
          <mxGeometry relative="1" as="geometry">
            <mxPoint x="414.5" y="-194" as="sourcePoint" />
            <mxPoint x="375.5" y="-193" as="targetPoint" />
          </mxGeometry>
        </mxCell>
        <mxCell id="ZEnR1woYkqBnwNMkH9m6-40" value="&lt;font style=&quot;font-size: 14px;&quot;&gt;?&lt;/font&gt;" style="ellipse;whiteSpace=wrap;html=1;aspect=fixed;fillColor=#dae8fc;strokeColor=#6c8ebf;fontFamily=Times New Roman;" parent="1" vertex="1">
          <mxGeometry x="390.5" y="-207.5" width="37" height="37" as="geometry" />
        </mxCell>
        <mxCell id="ZEnR1woYkqBnwNMkH9m6-41" style="rounded=0;orthogonalLoop=1;jettySize=auto;html=1;entryX=0;entryY=0.5;entryDx=0;entryDy=0;fontSize=14;startSize=8;endSize=8;exitX=1;exitY=0;exitDx=0;exitDy=0;endArrow=openThin;endFill=0;strokeColor=#FFB570;strokeWidth=2;fontFamily=Times New Roman;" parent="1" source="ZEnR1woYkqBnwNMkH9m6-44" target="ZEnR1woYkqBnwNMkH9m6-46" edge="1">
          <mxGeometry relative="1" as="geometry">
            <mxPoint x="769.5" y="-215.5" as="sourcePoint" />
            <mxPoint x="873" y="-250" as="targetPoint" />
          </mxGeometry>
        </mxCell>
        <mxCell id="ZEnR1woYkqBnwNMkH9m6-42" style="edgeStyle=none;curved=1;rounded=0;orthogonalLoop=1;jettySize=auto;html=1;fontSize=14;startSize=8;endSize=8;endArrow=openThin;endFill=0;strokeColor=#FFB570;strokeWidth=2;fontFamily=Times New Roman;" parent="1" source="ZEnR1woYkqBnwNMkH9m6-44" target="ZEnR1woYkqBnwNMkH9m6-47" edge="1">
          <mxGeometry relative="1" as="geometry" />
        </mxCell>
        <mxCell id="ZEnR1woYkqBnwNMkH9m6-43" style="rounded=0;orthogonalLoop=1;jettySize=auto;html=1;entryX=0;entryY=0.5;entryDx=0;entryDy=0;fontSize=14;startSize=8;endSize=8;endArrow=openThin;endFill=0;strokeColor=#FFB570;strokeWidth=2;fontFamily=Times New Roman;" parent="1" source="ZEnR1woYkqBnwNMkH9m6-44" target="ZEnR1woYkqBnwNMkH9m6-51" edge="1">
          <mxGeometry relative="1" as="geometry" />
        </mxCell>
        <mxCell id="ZEnR1woYkqBnwNMkH9m6-44" value="&lt;span&gt;France&lt;/span&gt;" style="ellipse;whiteSpace=wrap;html=1;aspect=fixed;fillColor=#d5e8d4;strokeColor=#82b366;fontFamily=Times New Roman;fontSize=14;" parent="1" vertex="1">
          <mxGeometry x="781.5" y="-204.5" width="37" height="37" as="geometry" />
        </mxCell>
        <mxCell id="ZEnR1woYkqBnwNMkH9m6-46" value="&lt;span style=&quot;font-family: Helvetica; font-size: 12px; text-align: left;&quot;&gt;Hollande&lt;/span&gt;" style="ellipse;whiteSpace=wrap;html=1;aspect=fixed;fillColor=#d5e8d4;strokeColor=#82b366;fontFamily=Times New Roman;fontSize=14;" parent="1" vertex="1">
          <mxGeometry x="858.5" y="-282.5" width="37" height="37" as="geometry" />
        </mxCell>
        <mxCell id="ZEnR1woYkqBnwNMkH9m6-47" value="&lt;span style=&quot;font-family: Helvetica; font-size: 12px; text-align: left;&quot;&gt;Macron&lt;/span&gt;" style="ellipse;whiteSpace=wrap;html=1;aspect=fixed;fillColor=#d5e8d4;strokeColor=#82b366;fontFamily=Times New Roman;fontSize=14;" parent="1" vertex="1">
          <mxGeometry x="934" y="-192.5" width="37" height="37" as="geometry" />
        </mxCell>
        <mxCell id="ZEnR1woYkqBnwNMkH9m6-48" style="rounded=0;orthogonalLoop=1;jettySize=auto;html=1;fontSize=14;startSize=8;endSize=8;endArrow=openThin;endFill=0;strokeColor=#FFB570;strokeWidth=2;entryX=0.5;entryY=1;entryDx=0;entryDy=0;fontFamily=Times New Roman;" parent="1" source="ZEnR1woYkqBnwNMkH9m6-49" target="ZEnR1woYkqBnwNMkH9m6-47" edge="1">
          <mxGeometry relative="1" as="geometry">
            <mxPoint x="1043.733383178711" y="-175.36664199829102" as="targetPoint" />
          </mxGeometry>
        </mxCell>
        <mxCell id="ZEnR1woYkqBnwNMkH9m6-49" value="&lt;span style=&quot;font-family: Helvetica; font-size: 12px; text-align: left;&quot;&gt;Boris Johnson&lt;/span&gt;" style="ellipse;whiteSpace=wrap;html=1;aspect=fixed;fillColor=#d5e8d4;strokeColor=#82b366;fontFamily=Times New Roman;fontSize=14;" parent="1" vertex="1">
          <mxGeometry x="913" y="-112.5" width="37" height="37" as="geometry" />
        </mxCell>
        <mxCell id="ZEnR1woYkqBnwNMkH9m6-50" style="edgeStyle=none;curved=1;rounded=0;orthogonalLoop=1;jettySize=auto;html=1;fontSize=14;startSize=8;endSize=8;endArrow=openThin;endFill=0;strokeColor=#FFB570;strokeWidth=2;fontFamily=Times New Roman;" parent="1" source="ZEnR1woYkqBnwNMkH9m6-51" target="ZEnR1woYkqBnwNMkH9m6-49" edge="1">
          <mxGeometry relative="1" as="geometry" />
        </mxCell>
        <mxCell id="ZEnR1woYkqBnwNMkH9m6-51" value="&lt;font&gt;UK&lt;/font&gt;" style="ellipse;whiteSpace=wrap;html=1;aspect=fixed;fillColor=#d5e8d4;strokeColor=#82b366;fontFamily=Times New Roman;fontSize=14;" parent="1" vertex="1">
          <mxGeometry x="788" y="-118.5" width="37" height="37" as="geometry" />
        </mxCell>
        <mxCell id="ZEnR1woYkqBnwNMkH9m6-52" value="&lt;font&gt;President,2016&lt;/font&gt;" style="text;html=1;align=center;verticalAlign=middle;whiteSpace=wrap;rounded=0;fontSize=14;fontFamily=Times New Roman;" parent="1" vertex="1">
          <mxGeometry x="776.5" y="-261.5" width="60" height="30" as="geometry" />
        </mxCell>
        <mxCell id="ZEnR1woYkqBnwNMkH9m6-53" value="&lt;font&gt;Successor,2017&lt;/font&gt;" style="text;html=1;align=center;verticalAlign=middle;whiteSpace=wrap;rounded=0;fontSize=14;fontFamily=Times New Roman;" parent="1" vertex="1">
          <mxGeometry x="896" y="-236.5" width="60" height="30" as="geometry" />
        </mxCell>
        <mxCell id="ZEnR1woYkqBnwNMkH9m6-55" value="&lt;font&gt;&lt;span style=&quot;white-space: pre;&quot; data-slate-fragment=&quot;JTVCJTdCJTIydHlwZSUyMiUzQSUyMnBhcmFncmFwaCUyMiUyQyUyMmNoaWxkcmVuJTIyJTNBJTVCJTdCJTIyaWQlMjIlM0ElMjJlTFo0cG95QU96JTIyJTJDJTIycGFyYUlkeCUyMiUzQTAlMkMlMjJzcmMlMjIlM0ElMjJlc3RhYmxpc2glMjBkaXBsb21hdGljJTIwcmVsYXRpb24lMjIlMkMlMjJkc3QlMjIlM0ElMjIlRTUlQkIlQkElRTclQUIlOEIlRTUlQTQlOTYlRTQlQkElQTQlRTUlODUlQjMlRTclQjMlQkIlMjIlMkMlMjJtZXRhZGF0YSUyMiUzQSUyMiUyMiUyQyUyMm1ldGFEYXRhJTIyJTNBJTVCJTVEJTJDJTIydGV4dCUyMiUzQSUyMmVzdGFibGlzaCUyMGRpcGxvbWF0aWMlMjByZWxhdGlvbiUyMiU3RCU1RCU3RCU1RA==&quot;&gt;establish diplomatic&lt;/span&gt;&lt;/font&gt;&lt;div&gt;&lt;font&gt;&lt;span style=&quot;white-space: pre;&quot; data-slate-fragment=&quot;JTVCJTdCJTIydHlwZSUyMiUzQSUyMnBhcmFncmFwaCUyMiUyQyUyMmNoaWxkcmVuJTIyJTNBJTVCJTdCJTIyaWQlMjIlM0ElMjJlTFo0cG95QU96JTIyJTJDJTIycGFyYUlkeCUyMiUzQTAlMkMlMjJzcmMlMjIlM0ElMjJlc3RhYmxpc2glMjBkaXBsb21hdGljJTIwcmVsYXRpb24lMjIlMkMlMjJkc3QlMjIlM0ElMjIlRTUlQkIlQkElRTclQUIlOEIlRTUlQTQlOTYlRTQlQkElQTQlRTUlODUlQjMlRTclQjMlQkIlMjIlMkMlMjJtZXRhZGF0YSUyMiUzQSUyMiUyMiUyQyUyMm1ldGFEYXRhJTIyJTNBJTVCJTVEJTJDJTIydGV4dCUyMiUzQSUyMmVzdGFibGlzaCUyMGRpcGxvbWF0aWMlMjByZWxhdGlvbiUyMiU3RCU1RCU3RCU1RA==&quot;&gt; relation&lt;/span&gt;,1904&lt;/font&gt;&lt;/div&gt;" style="text;html=1;align=center;verticalAlign=middle;whiteSpace=wrap;rounded=0;fontSize=14;fontFamily=Times New Roman;" parent="1" vertex="1">
          <mxGeometry x="798.5" y="-152.5" width="60" height="30" as="geometry" />
        </mxCell>
        <mxCell id="ZEnR1woYkqBnwNMkH9m6-56" value="&lt;font&gt;Prime minister,2019&lt;/font&gt;" style="text;html=1;align=center;verticalAlign=middle;whiteSpace=wrap;rounded=0;fontSize=14;fontFamily=Times New Roman;" parent="1" vertex="1">
          <mxGeometry x="816.5" y="-98.5" width="104" height="30" as="geometry" />
        </mxCell>
        <mxCell id="ZEnR1woYkqBnwNMkH9m6-57" value="&lt;font&gt;Interview with,2022&lt;/font&gt;" style="text;html=1;align=center;verticalAlign=middle;whiteSpace=wrap;rounded=0;fontSize=14;fontFamily=Times New Roman;" parent="1" vertex="1">
          <mxGeometry x="940" y="-145.5" width="60" height="30" as="geometry" />
        </mxCell>
        <mxCell id="ZEnR1woYkqBnwNMkH9m6-58" style="rounded=0;orthogonalLoop=1;jettySize=auto;html=1;fontSize=14;startSize=8;endSize=8;endArrow=openThin;endFill=0;strokeColor=#FFB570;strokeWidth=2;dashed=1;entryX=1;entryY=0.5;entryDx=0;entryDy=0;fontFamily=Times New Roman;" parent="1" target="ZEnR1woYkqBnwNMkH9m6-59" edge="1">
          <mxGeometry relative="1" as="geometry">
            <mxPoint x="781" y="-188.5" as="sourcePoint" />
            <mxPoint x="741" y="-190.5" as="targetPoint" />
          </mxGeometry>
        </mxCell>
        <mxCell id="ZEnR1woYkqBnwNMkH9m6-59" value="&lt;font&gt;?&lt;/font&gt;" style="ellipse;whiteSpace=wrap;html=1;aspect=fixed;fillColor=#d5e8d4;strokeColor=#82b366;fontFamily=Times New Roman;fontSize=14;" parent="1" vertex="1">
          <mxGeometry x="698" y="-206.5" width="37" height="37" as="geometry" />
        </mxCell>
        <mxCell id="ZEnR1woYkqBnwNMkH9m6-60" value="&lt;font style=&quot;font-size: 14px;&quot;&gt;President,&amp;nbsp;&lt;/font&gt;&lt;div&gt;&lt;font style=&quot;font-size: 14px;&quot;&gt;2023&lt;/font&gt;&lt;/div&gt;" style="text;html=1;align=center;verticalAlign=middle;whiteSpace=wrap;rounded=0;fontSize=16;fontFamily=Times New Roman;" parent="1" vertex="1">
          <mxGeometry x="687" y="-226" width="153" height="30" as="geometry" />
        </mxCell>
        <mxCell id="ZEnR1woYkqBnwNMkH9m6-63" value="&lt;b style=&quot;&quot;&gt;&lt;font face=&quot;宋体&quot; style=&quot;font-size: 20px;&quot;&gt;训练集&lt;/font&gt;&lt;/b&gt;" style="text;html=1;align=center;verticalAlign=middle;whiteSpace=wrap;rounded=0;fontSize=16;fontFamily=Times New Roman;" parent="1" vertex="1">
          <mxGeometry x="78.5" y="-342.5" width="126" height="30" as="geometry" />
        </mxCell>
        <mxCell id="ZEnR1woYkqBnwNMkH9m6-64" value="&lt;b style=&quot;&quot;&gt;&lt;font face=&quot;宋体&quot; style=&quot;font-size: 20px;&quot;&gt;直推推理测试集&lt;/font&gt;&lt;/b&gt;" style="text;html=1;align=center;verticalAlign=middle;whiteSpace=wrap;rounded=0;fontSize=16;fontFamily=Times New Roman;" parent="1" vertex="1">
          <mxGeometry x="399.5" y="-331" width="184" height="30" as="geometry" />
        </mxCell>
        <mxCell id="ZEnR1woYkqBnwNMkH9m6-65" value="&lt;b style=&quot;&quot;&gt;&lt;font face=&quot;宋体&quot; style=&quot;font-size: 20px;&quot;&gt;归纳推理测试集&lt;/font&gt;&lt;/b&gt;" style="text;html=1;align=center;verticalAlign=middle;whiteSpace=wrap;rounded=0;fontSize=16;fontFamily=Times New Roman;" parent="1" vertex="1">
          <mxGeometry x="766" y="-331" width="184" height="30" as="geometry" />
        </mxCell>
        <mxCell id="4Hwfi5V8rL6_1j3d9u5l-3" style="rounded=0;orthogonalLoop=1;jettySize=auto;html=1;fontSize=14;startSize=8;endSize=8;exitX=1;exitY=0;exitDx=0;exitDy=0;endArrow=openThin;endFill=0;strokeColor=#FFB570;strokeWidth=2;fillColor=#dae8fc;fontFamily=Times New Roman;" edge="1" parent="1" source="ZEnR1woYkqBnwNMkH9m6-24">
          <mxGeometry relative="1" as="geometry">
            <mxPoint x="355.5" y="-263" as="sourcePoint" />
            <mxPoint x="495.5" y="-253" as="targetPoint" />
          </mxGeometry>
        </mxCell>
        <mxCell id="4Hwfi5V8rL6_1j3d9u5l-4" style="edgeStyle=none;curved=1;rounded=0;orthogonalLoop=1;jettySize=auto;html=1;fontSize=14;startSize=8;endSize=8;endArrow=openThin;endFill=0;strokeColor=#FFB570;strokeWidth=2;fontFamily=Times New Roman;entryX=1;entryY=1;entryDx=0;entryDy=0;exitX=0.005;exitY=0.404;exitDx=0;exitDy=0;exitPerimeter=0;" edge="1" parent="1" source="ZEnR1woYkqBnwNMkH9m6-9" target="ZEnR1woYkqBnwNMkH9m6-7">
          <mxGeometry relative="1" as="geometry">
            <mxPoint x="110" y="-290" as="sourcePoint" />
            <mxPoint x="-17" y="-356" as="targetPoint" />
          </mxGeometry>
        </mxCell>
        <mxCell id="4Hwfi5V8rL6_1j3d9u5l-5" value="&lt;font&gt;Born in,1946&lt;/font&gt;" style="text;html=1;align=center;verticalAlign=middle;whiteSpace=wrap;rounded=0;fontSize=14;fontFamily=Times New Roman;" vertex="1" parent="1">
          <mxGeometry x="87" y="-301" width="114" height="30" as="geometry" />
        </mxCell>
        <mxCell id="4Hwfi5V8rL6_1j3d9u5l-7" value="&lt;span style=&quot;text-align: left;&quot;&gt;&lt;font face=&quot;Times New Roman&quot;&gt;Stephen Harper&lt;/font&gt;&lt;/span&gt;" style="ellipse;whiteSpace=wrap;html=1;aspect=fixed;fillColor=#dae8fc;strokeColor=#6c8ebf;fontFamily=Times New Roman;fontSize=14;" vertex="1" parent="1">
          <mxGeometry x="97" y="-84" width="37" height="37" as="geometry" />
        </mxCell>
        <mxCell id="4Hwfi5V8rL6_1j3d9u5l-8" style="edgeStyle=none;curved=1;rounded=0;orthogonalLoop=1;jettySize=auto;html=1;fontSize=14;startSize=8;endSize=8;endArrow=openThin;endFill=0;strokeColor=#FFB570;strokeWidth=2;fontFamily=Times New Roman;entryX=0;entryY=0.5;entryDx=0;entryDy=0;" edge="1" parent="1" source="ZEnR1woYkqBnwNMkH9m6-14" target="4Hwfi5V8rL6_1j3d9u5l-7">
          <mxGeometry relative="1" as="geometry">
            <mxPoint x="93" y="-94" as="sourcePoint" />
            <mxPoint x="229" y="-78" as="targetPoint" />
          </mxGeometry>
        </mxCell>
        <mxCell id="4Hwfi5V8rL6_1j3d9u5l-10" style="rounded=0;orthogonalLoop=1;jettySize=auto;html=1;entryX=0.5;entryY=1;entryDx=0;entryDy=0;fontSize=14;startSize=8;endSize=8;endArrow=openThin;endFill=0;strokeColor=#FFB570;strokeWidth=2;fontFamily=Times New Roman;exitX=1;exitY=0.5;exitDx=0;exitDy=0;" edge="1" parent="1" source="4Hwfi5V8rL6_1j3d9u5l-7" target="ZEnR1woYkqBnwNMkH9m6-12">
          <mxGeometry relative="1" as="geometry">
            <mxPoint x="173" y="-64" as="sourcePoint" />
            <mxPoint x="231" y="-16" as="targetPoint" />
          </mxGeometry>
        </mxCell>
        <mxCell id="4Hwfi5V8rL6_1j3d9u5l-11" value="&lt;font&gt;Successor,2015&lt;/font&gt;" style="text;html=1;align=center;verticalAlign=middle;whiteSpace=wrap;rounded=0;fontSize=14;fontFamily=Times New Roman;" vertex="1" parent="1">
          <mxGeometry x="134" y="-106.5" width="60" height="30" as="geometry" />
        </mxCell>
        <mxCell id="4Hwfi5V8rL6_1j3d9u5l-12" value="&lt;font&gt;Prime minister,2006&lt;/font&gt;" style="text;html=1;align=center;verticalAlign=middle;whiteSpace=wrap;rounded=0;fontSize=14;fontFamily=Times New Roman;" vertex="1" parent="1">
          <mxGeometry x="-4" y="-114" width="104" height="30" as="geometry" />
        </mxCell>
        <mxCell id="4Hwfi5V8rL6_1j3d9u5l-13" value="&lt;span style=&quot;color: rgb(51, 51, 51); font-size: 13px; text-align: start;&quot;&gt;&lt;font face=&quot;Times New Roman&quot;&gt;Barack&amp;nbsp; Obama&lt;/font&gt;&lt;/span&gt;" style="ellipse;whiteSpace=wrap;html=1;aspect=fixed;fillColor=#dae8fc;strokeColor=#6c8ebf;fontFamily=Times New Roman;fontSize=14;labelBackgroundColor=none;" vertex="1" parent="1">
          <mxGeometry x="180" y="-192" width="37" height="37" as="geometry" />
        </mxCell>
        <mxCell id="4Hwfi5V8rL6_1j3d9u5l-14" style="rounded=0;orthogonalLoop=1;jettySize=auto;html=1;fontSize=14;startSize=8;endSize=8;endArrow=openThin;endFill=0;strokeColor=#FFB570;strokeWidth=2;fontFamily=Times New Roman;exitX=0.69;exitY=0.906;exitDx=0;exitDy=0;exitPerimeter=0;entryX=0.053;entryY=0.326;entryDx=0;entryDy=0;entryPerimeter=0;" edge="1" parent="1" target="4Hwfi5V8rL6_1j3d9u5l-13">
          <mxGeometry relative="1" as="geometry">
            <mxPoint x="205" y="-217" as="targetPoint" />
            <mxPoint x="50.549999999999976" y="-251.49799999999985" as="sourcePoint" />
          </mxGeometry>
        </mxCell>
        <mxCell id="4Hwfi5V8rL6_1j3d9u5l-15" value="&lt;font&gt;President,2008&lt;/font&gt;" style="text;html=1;align=center;verticalAlign=middle;whiteSpace=wrap;rounded=0;fontSize=14;fontFamily=Times New Roman;" vertex="1" parent="1">
          <mxGeometry x="97" y="-234" width="60" height="30" as="geometry" />
        </mxCell>
        <mxCell id="4Hwfi5V8rL6_1j3d9u5l-19" value="&lt;font style=&quot;font-size: 14px;&quot;&gt;President,&amp;nbsp;&lt;/font&gt;&lt;div&gt;&lt;font style=&quot;font-size: 14px;&quot;&gt;2022&lt;/font&gt;&lt;/div&gt;" style="text;html=1;align=center;verticalAlign=middle;whiteSpace=wrap;rounded=0;fontSize=16;fontFamily=Times New Roman;" vertex="1" parent="1">
          <mxGeometry x="809.5" y="-199.5" width="124.5" height="30" as="geometry" />
        </mxCell>
        <mxCell id="4Hwfi5V8rL6_1j3d9u5l-22" style="rounded=0;orthogonalLoop=1;jettySize=auto;html=1;entryX=0.296;entryY=0.076;entryDx=0;entryDy=0;fontSize=14;startSize=8;endSize=8;exitX=1;exitY=1;exitDx=0;exitDy=0;endArrow=openThin;endFill=0;strokeColor=#FFB570;strokeWidth=2;fontFamily=Times New Roman;entryPerimeter=0;" edge="1" parent="1" source="ZEnR1woYkqBnwNMkH9m6-46" target="ZEnR1woYkqBnwNMkH9m6-47">
          <mxGeometry relative="1" as="geometry">
            <mxPoint x="950" y="-265" as="sourcePoint" />
            <mxPoint x="995" y="-330" as="targetPoint" />
          </mxGeometry>
        </mxCell>
      </root>
    </mxGraphModel>
  </diagram>
  <diagram id="QxYBDKOULGMQnRKghbxe" name="第 2 页">
    <mxGraphModel dx="2042" dy="753" grid="1" gridSize="10" guides="1" tooltips="1" connect="1" arrows="1" fold="1" page="1" pageScale="1" pageWidth="827" pageHeight="1169" math="0" shadow="0">
      <root>
        <mxCell id="0" />
        <mxCell id="1" parent="0" />
        <mxCell id="mxc4Yf017uCKnpSmPSiX-1" style="edgeStyle=none;curved=1;rounded=0;orthogonalLoop=1;jettySize=auto;html=1;fontSize=12;startSize=8;endSize=8;endArrow=classicThin;endFill=1;" edge="1" parent="1" source="mxc4Yf017uCKnpSmPSiX-2">
          <mxGeometry relative="1" as="geometry">
            <mxPoint x="166.8981357150608" y="77.5" as="targetPoint" />
          </mxGeometry>
        </mxCell>
        <mxCell id="mxc4Yf017uCKnpSmPSiX-2" value="&lt;span style=&quot;font-size: 11px;&quot;&gt;o&lt;/span&gt;&lt;sub&gt;1&lt;/sub&gt;" style="ellipse;whiteSpace=wrap;html=1;aspect=fixed;fillColor=#dae8fc;strokeColor=#6c8ebf;" vertex="1" parent="1">
          <mxGeometry x="-7" y="65" width="25" height="25" as="geometry" />
        </mxCell>
        <mxCell id="mxc4Yf017uCKnpSmPSiX-3" style="edgeStyle=none;curved=1;rounded=0;orthogonalLoop=1;jettySize=auto;html=1;fontSize=12;startSize=8;endSize=8;endArrow=none;" edge="1" parent="1" source="mxc4Yf017uCKnpSmPSiX-5">
          <mxGeometry relative="1" as="geometry">
            <mxPoint x="6.5" y="90.13332748413086" as="targetPoint" />
          </mxGeometry>
        </mxCell>
        <mxCell id="mxc4Yf017uCKnpSmPSiX-4" style="edgeStyle=none;curved=1;rounded=0;orthogonalLoop=1;jettySize=auto;html=1;fontSize=12;startSize=8;endSize=8;endArrow=classicThin;endFill=1;" edge="1" parent="1" source="mxc4Yf017uCKnpSmPSiX-5" target="mxc4Yf017uCKnpSmPSiX-17">
          <mxGeometry relative="1" as="geometry">
            <mxPoint x="135.33338928222656" y="249.13335800170898" as="targetPoint" />
          </mxGeometry>
        </mxCell>
        <mxCell id="mxc4Yf017uCKnpSmPSiX-5" value="&lt;span style=&quot;font-size: 11px;&quot;&gt;o&lt;/span&gt;&lt;sub&gt;2&lt;/sub&gt;" style="ellipse;whiteSpace=wrap;html=1;aspect=fixed;fillColor=#ffe6cc;strokeColor=#d79b00;" vertex="1" parent="1">
          <mxGeometry x="-7" y="199" width="25" height="25" as="geometry" />
        </mxCell>
        <mxCell id="mxc4Yf017uCKnpSmPSiX-6" value="&lt;br&gt;&lt;div&gt;节点：o&lt;sub&gt;1&lt;/sub&gt;&lt;/div&gt;&lt;div&gt;时间戳：t&lt;font size=&quot;1&quot;&gt;&lt;sub&gt;1&lt;/sub&gt;&lt;/font&gt;&lt;/div&gt;&lt;div&gt;&lt;br&gt;&lt;/div&gt;" style="text;html=1;align=center;verticalAlign=middle;whiteSpace=wrap;rounded=0;fontFamily=Helvetica;fontSize=11;fontColor=default;labelBackgroundColor=default;" vertex="1" parent="1">
          <mxGeometry x="-71" y="57" width="60" height="30" as="geometry" />
        </mxCell>
        <mxCell id="mxc4Yf017uCKnpSmPSiX-7" value="&lt;br&gt;&lt;div&gt;节点：o&lt;sub&gt;2&lt;/sub&gt;&lt;/div&gt;&lt;div&gt;时间戳：t&lt;sub&gt;2&lt;/sub&gt;&lt;/div&gt;&lt;div&gt;&lt;br&gt;&lt;/div&gt;" style="text;html=1;align=center;verticalAlign=middle;whiteSpace=wrap;rounded=0;fontFamily=Helvetica;fontSize=11;fontColor=default;labelBackgroundColor=default;" vertex="1" parent="1">
          <mxGeometry x="-71" y="196.5" width="60" height="30" as="geometry" />
        </mxCell>
        <mxCell id="mxc4Yf017uCKnpSmPSiX-8" value="" style="endArrow=none;html=1;rounded=0;fontSize=12;startSize=8;endSize=8;curved=1;" edge="1" parent="1">
          <mxGeometry width="50" height="50" relative="1" as="geometry">
            <mxPoint x="6" y="152" as="sourcePoint" />
            <mxPoint x="60" y="152" as="targetPoint" />
          </mxGeometry>
        </mxCell>
        <mxCell id="mxc4Yf017uCKnpSmPSiX-9" value="∆T=|t&amp;nbsp;- t&lt;sub&gt;&lt;font style=&quot;font-size: 11px;&quot;&gt;1&lt;/font&gt;&lt;/sub&gt;|" style="text;html=1;align=center;verticalAlign=middle;whiteSpace=wrap;rounded=0;fontFamily=Helvetica;fontSize=11;fontColor=default;labelBackgroundColor=default;" vertex="1" parent="1">
          <mxGeometry x="25" y="48" width="60" height="30" as="geometry" />
        </mxCell>
        <mxCell id="mxc4Yf017uCKnpSmPSiX-10" style="edgeStyle=orthogonalEdgeStyle;rounded=0;orthogonalLoop=1;jettySize=auto;html=1;fontSize=12;startSize=8;endSize=8;entryX=0.5;entryY=0;entryDx=0;entryDy=0;endArrow=classicThin;endFill=1;" edge="1" parent="1" source="mxc4Yf017uCKnpSmPSiX-12" target="mxc4Yf017uCKnpSmPSiX-17">
          <mxGeometry relative="1" as="geometry">
            <mxPoint x="195.93333435058594" y="156.5" as="targetPoint" />
          </mxGeometry>
        </mxCell>
        <mxCell id="mxc4Yf017uCKnpSmPSiX-11" style="edgeStyle=orthogonalEdgeStyle;rounded=0;orthogonalLoop=1;jettySize=auto;html=1;entryX=0.5;entryY=1;entryDx=0;entryDy=0;fontSize=12;startSize=8;endSize=8;endArrow=classicThin;endFill=1;exitX=1;exitY=0.5;exitDx=0;exitDy=0;" edge="1" parent="1" source="mxc4Yf017uCKnpSmPSiX-12" target="mxc4Yf017uCKnpSmPSiX-43">
          <mxGeometry relative="1" as="geometry" />
        </mxCell>
        <mxCell id="mxc4Yf017uCKnpSmPSiX-12" value="" style="rounded=1;whiteSpace=wrap;html=1;" vertex="1" parent="1">
          <mxGeometry x="61" y="134" width="64" height="45" as="geometry" />
        </mxCell>
        <mxCell id="mxc4Yf017uCKnpSmPSiX-13" value="" style="endArrow=none;html=1;rounded=0;fontSize=12;startSize=8;endSize=8;curved=1;strokeColor=#B20000;fillColor=#e51400;" edge="1" parent="1">
          <mxGeometry width="50" height="50" relative="1" as="geometry">
            <mxPoint x="70" y="164.5" as="sourcePoint" />
            <mxPoint x="110" y="146.5" as="targetPoint" />
            <Array as="points">
              <mxPoint x="80" y="136.5" />
              <mxPoint x="100" y="176.5" />
            </Array>
          </mxGeometry>
        </mxCell>
        <mxCell id="mxc4Yf017uCKnpSmPSiX-14" value="" style="endArrow=none;html=1;rounded=0;fontSize=12;startSize=8;endSize=8;curved=1;strokeColor=#001DBC;fillColor=#0050ef;" edge="1" parent="1">
          <mxGeometry width="50" height="50" relative="1" as="geometry">
            <mxPoint x="80" y="164.5" as="sourcePoint" />
            <mxPoint x="120" y="146.5" as="targetPoint" />
            <Array as="points">
              <mxPoint x="90" y="136.5" />
              <mxPoint x="110" y="176.5" />
            </Array>
          </mxGeometry>
        </mxCell>
        <mxCell id="mxc4Yf017uCKnpSmPSiX-15" value="sinusoid" style="text;html=1;align=center;verticalAlign=middle;whiteSpace=wrap;rounded=0;fontFamily=Helvetica;fontSize=11;fontColor=default;labelBackgroundColor=default;" vertex="1" parent="1">
          <mxGeometry x="65" y="179" width="60" height="30" as="geometry" />
        </mxCell>
        <mxCell id="mxc4Yf017uCKnpSmPSiX-16" style="edgeStyle=none;curved=1;rounded=0;orthogonalLoop=1;jettySize=auto;html=1;fontSize=12;startSize=8;endSize=8;endArrow=classicThin;endFill=1;" edge="1" parent="1" source="mxc4Yf017uCKnpSmPSiX-17">
          <mxGeometry relative="1" as="geometry">
            <mxPoint x="221.53334045410156" y="211.5" as="targetPoint" />
          </mxGeometry>
        </mxCell>
        <mxCell id="mxc4Yf017uCKnpSmPSiX-17" value="" style="ellipse;whiteSpace=wrap;html=1;aspect=fixed;" vertex="1" parent="1">
          <mxGeometry x="165" y="201.5" width="20" height="20" as="geometry" />
        </mxCell>
        <mxCell id="mxc4Yf017uCKnpSmPSiX-18" value="" style="endArrow=none;html=1;rounded=0;fontSize=12;startSize=8;endSize=8;curved=1;exitX=0;exitY=0.5;exitDx=0;exitDy=0;entryX=1;entryY=0.5;entryDx=0;entryDy=0;" edge="1" parent="1" source="mxc4Yf017uCKnpSmPSiX-17" target="mxc4Yf017uCKnpSmPSiX-17">
          <mxGeometry width="50" height="50" relative="1" as="geometry">
            <mxPoint x="167" y="211" as="sourcePoint" />
            <mxPoint x="184" y="211" as="targetPoint" />
          </mxGeometry>
        </mxCell>
        <mxCell id="mxc4Yf017uCKnpSmPSiX-19" value="" style="endArrow=none;html=1;rounded=0;fontSize=12;startSize=8;endSize=8;curved=1;entryX=1;entryY=0.5;entryDx=0;entryDy=0;exitX=0.5;exitY=1;exitDx=0;exitDy=0;" edge="1" parent="1" source="mxc4Yf017uCKnpSmPSiX-17">
          <mxGeometry width="50" height="50" relative="1" as="geometry">
            <mxPoint x="174.82999999999998" y="216.5" as="sourcePoint" />
            <mxPoint x="174.82999999999998" y="201.5" as="targetPoint" />
          </mxGeometry>
        </mxCell>
        <mxCell id="mxc4Yf017uCKnpSmPSiX-20" value="" style="rounded=1;whiteSpace=wrap;html=1;rotation=-90;fillColor=#ffe6cc;strokeColor=#d79b00;" vertex="1" parent="1">
          <mxGeometry x="191.75" y="199.75" width="85.5" height="25.5" as="geometry" />
        </mxCell>
        <mxCell id="mxc4Yf017uCKnpSmPSiX-21" value="" style="ellipse;whiteSpace=wrap;html=1;aspect=fixed;" vertex="1" parent="1">
          <mxGeometry x="227" y="181.5" width="15" height="15" as="geometry" />
        </mxCell>
        <mxCell id="mxc4Yf017uCKnpSmPSiX-22" value="" style="ellipse;whiteSpace=wrap;html=1;aspect=fixed;" vertex="1" parent="1">
          <mxGeometry x="227" y="209" width="15" height="15" as="geometry" />
        </mxCell>
        <mxCell id="mxc4Yf017uCKnpSmPSiX-23" value="" style="ellipse;whiteSpace=wrap;html=1;aspect=fixed;" vertex="1" parent="1">
          <mxGeometry x="227" y="235" width="15" height="15" as="geometry" />
        </mxCell>
        <mxCell id="mxc4Yf017uCKnpSmPSiX-24" value="" style="rounded=1;whiteSpace=wrap;html=1;rotation=-90;fillColor=#dae8fc;strokeColor=#6c8ebf;" vertex="1" parent="1">
          <mxGeometry x="191.75" y="65" width="85.5" height="25.5" as="geometry" />
        </mxCell>
        <mxCell id="mxc4Yf017uCKnpSmPSiX-25" value="" style="ellipse;whiteSpace=wrap;html=1;aspect=fixed;" vertex="1" parent="1">
          <mxGeometry x="227" y="44" width="15" height="15" as="geometry" />
        </mxCell>
        <mxCell id="mxc4Yf017uCKnpSmPSiX-26" value="" style="ellipse;whiteSpace=wrap;html=1;aspect=fixed;" vertex="1" parent="1">
          <mxGeometry x="227" y="70" width="15" height="15" as="geometry" />
        </mxCell>
        <mxCell id="mxc4Yf017uCKnpSmPSiX-27" value="" style="ellipse;whiteSpace=wrap;html=1;aspect=fixed;" vertex="1" parent="1">
          <mxGeometry x="227" y="94" width="15" height="15" as="geometry" />
        </mxCell>
        <mxCell id="mxc4Yf017uCKnpSmPSiX-28" style="rounded=0;orthogonalLoop=1;jettySize=auto;html=1;entryX=0;entryY=0;entryDx=0;entryDy=0;fontSize=12;startSize=8;endSize=8;endArrow=none;endFill=0;" edge="1" parent="1" source="mxc4Yf017uCKnpSmPSiX-29" target="mxc4Yf017uCKnpSmPSiX-30">
          <mxGeometry relative="1" as="geometry" />
        </mxCell>
        <mxCell id="mxc4Yf017uCKnpSmPSiX-29" value="o&lt;sub&gt;1&lt;/sub&gt;" style="ellipse;whiteSpace=wrap;html=1;aspect=fixed;fillColor=#dae8fc;strokeColor=#6c8ebf;" vertex="1" parent="1">
          <mxGeometry x="-144" y="94" width="15" height="15" as="geometry" />
        </mxCell>
        <mxCell id="mxc4Yf017uCKnpSmPSiX-30" value="s" style="ellipse;whiteSpace=wrap;html=1;aspect=fixed;" vertex="1" parent="1">
          <mxGeometry x="-182" y="125" width="15" height="15" as="geometry" />
        </mxCell>
        <mxCell id="mxc4Yf017uCKnpSmPSiX-31" value="" style="ellipse;whiteSpace=wrap;html=1;aspect=fixed;" vertex="1" parent="1">
          <mxGeometry x="-111" y="125" width="15" height="15" as="geometry" />
        </mxCell>
        <mxCell id="mxc4Yf017uCKnpSmPSiX-32" value="o&lt;sub&gt;2&lt;/sub&gt;" style="ellipse;whiteSpace=wrap;html=1;aspect=fixed;fillColor=#ffe6cc;strokeColor=#d79b00;" vertex="1" parent="1">
          <mxGeometry x="-161" y="164" width="15" height="15" as="geometry" />
        </mxCell>
        <mxCell id="mxc4Yf017uCKnpSmPSiX-33" value="" style="ellipse;whiteSpace=wrap;html=1;aspect=fixed;" vertex="1" parent="1">
          <mxGeometry x="-118" y="155" width="15" height="15" as="geometry" />
        </mxCell>
        <mxCell id="mxc4Yf017uCKnpSmPSiX-34" style="rounded=0;orthogonalLoop=1;jettySize=auto;html=1;entryX=0;entryY=0;entryDx=0;entryDy=0;fontSize=12;startSize=8;endSize=8;endArrow=none;endFill=0;exitX=0.5;exitY=1;exitDx=0;exitDy=0;" edge="1" parent="1" source="mxc4Yf017uCKnpSmPSiX-30" target="mxc4Yf017uCKnpSmPSiX-32">
          <mxGeometry relative="1" as="geometry">
            <mxPoint x="-174" y="138" as="sourcePoint" />
            <mxPoint x="-165" y="146" as="targetPoint" />
          </mxGeometry>
        </mxCell>
        <mxCell id="mxc4Yf017uCKnpSmPSiX-35" style="rounded=0;orthogonalLoop=1;jettySize=auto;html=1;entryX=0.5;entryY=1;entryDx=0;entryDy=0;fontSize=12;startSize=8;endSize=8;endArrow=none;endFill=0;exitX=0.5;exitY=0;exitDx=0;exitDy=0;" edge="1" parent="1" source="mxc4Yf017uCKnpSmPSiX-33" target="mxc4Yf017uCKnpSmPSiX-31">
          <mxGeometry relative="1" as="geometry">
            <mxPoint x="-132" y="145" as="sourcePoint" />
            <mxPoint x="-168" y="171" as="targetPoint" />
          </mxGeometry>
        </mxCell>
        <mxCell id="mxc4Yf017uCKnpSmPSiX-36" style="rounded=0;orthogonalLoop=1;jettySize=auto;html=1;entryX=0;entryY=0;entryDx=0;entryDy=0;fontSize=12;startSize=8;endSize=8;endArrow=none;endFill=0;" edge="1" parent="1" source="mxc4Yf017uCKnpSmPSiX-30" target="mxc4Yf017uCKnpSmPSiX-33">
          <mxGeometry relative="1" as="geometry">
            <mxPoint x="-144" y="146" as="sourcePoint" />
            <mxPoint x="-129" y="172" as="targetPoint" />
          </mxGeometry>
        </mxCell>
        <mxCell id="mxc4Yf017uCKnpSmPSiX-37" value="Query(s,r,?,t)" style="text;html=1;align=center;verticalAlign=middle;whiteSpace=wrap;rounded=0;fontFamily=Helvetica;fontSize=11;fontColor=default;labelBackgroundColor=default;" vertex="1" parent="1">
          <mxGeometry x="-178" y="202" width="69" height="30" as="geometry" />
        </mxCell>
        <mxCell id="mxc4Yf017uCKnpSmPSiX-38" style="rounded=0;orthogonalLoop=1;jettySize=auto;html=1;entryX=0;entryY=0;entryDx=0;entryDy=0;fontSize=12;startSize=8;endSize=8;endArrow=none;endFill=0;exitX=1;exitY=1;exitDx=0;exitDy=0;" edge="1" parent="1" source="mxc4Yf017uCKnpSmPSiX-29" target="mxc4Yf017uCKnpSmPSiX-31">
          <mxGeometry relative="1" as="geometry">
            <mxPoint x="-130" y="119" as="sourcePoint" />
            <mxPoint x="-78" y="141" as="targetPoint" />
          </mxGeometry>
        </mxCell>
        <mxCell id="mxc4Yf017uCKnpSmPSiX-39" value="r&lt;sub&gt;1&lt;/sub&gt;,t&lt;sub&gt;1&lt;/sub&gt;" style="text;html=1;align=center;verticalAlign=middle;whiteSpace=wrap;rounded=0;fontFamily=Helvetica;fontSize=11;fontColor=default;labelBackgroundColor=default;" vertex="1" parent="1">
          <mxGeometry x="-201" y="94" width="60" height="30" as="geometry" />
        </mxCell>
        <mxCell id="mxc4Yf017uCKnpSmPSiX-40" value="r&lt;sub&gt;2&lt;/sub&gt;,t&lt;sub&gt;2&lt;/sub&gt;" style="text;html=1;align=center;verticalAlign=middle;whiteSpace=wrap;rounded=0;fontFamily=Helvetica;fontSize=11;fontColor=default;labelBackgroundColor=default;" vertex="1" parent="1">
          <mxGeometry x="-206" y="144" width="60" height="30" as="geometry" />
        </mxCell>
        <mxCell id="mxc4Yf017uCKnpSmPSiX-41" value="∆T=|t&amp;nbsp;- t&lt;sub&gt;2&lt;/sub&gt;|" style="text;html=1;align=center;verticalAlign=middle;whiteSpace=wrap;rounded=0;fontFamily=Helvetica;fontSize=11;fontColor=default;labelBackgroundColor=default;" vertex="1" parent="1">
          <mxGeometry x="9" y="179" width="60" height="30" as="geometry" />
        </mxCell>
        <mxCell id="mxc4Yf017uCKnpSmPSiX-42" style="edgeStyle=none;curved=1;rounded=0;orthogonalLoop=1;jettySize=auto;html=1;fontSize=12;startSize=8;endSize=8;endArrow=classicThin;endFill=1;" edge="1" parent="1" source="mxc4Yf017uCKnpSmPSiX-43">
          <mxGeometry relative="1" as="geometry">
            <mxPoint x="219.63888549804688" y="77" as="targetPoint" />
          </mxGeometry>
        </mxCell>
        <mxCell id="mxc4Yf017uCKnpSmPSiX-43" value="" style="ellipse;whiteSpace=wrap;html=1;aspect=fixed;" vertex="1" parent="1">
          <mxGeometry x="165" y="67" width="20" height="20" as="geometry" />
        </mxCell>
        <mxCell id="mxc4Yf017uCKnpSmPSiX-44" value="" style="endArrow=none;html=1;rounded=0;fontSize=12;startSize=8;endSize=8;curved=1;exitX=0;exitY=0.5;exitDx=0;exitDy=0;entryX=1;entryY=0.5;entryDx=0;entryDy=0;" edge="1" parent="1">
          <mxGeometry width="50" height="50" relative="1" as="geometry">
            <mxPoint x="165" y="78" as="sourcePoint" />
            <mxPoint x="185" y="78" as="targetPoint" />
          </mxGeometry>
        </mxCell>
        <mxCell id="mxc4Yf017uCKnpSmPSiX-45" value="" style="endArrow=none;html=1;rounded=0;fontSize=12;startSize=8;endSize=8;curved=1;entryX=1;entryY=0.5;entryDx=0;entryDy=0;exitX=0.5;exitY=1;exitDx=0;exitDy=0;" edge="1" parent="1">
          <mxGeometry width="50" height="50" relative="1" as="geometry">
            <mxPoint x="174.94" y="87" as="sourcePoint" />
            <mxPoint x="174.76999999999998" y="66.5" as="targetPoint" />
          </mxGeometry>
        </mxCell>
        <mxCell id="mxc4Yf017uCKnpSmPSiX-46" value="" style="endArrow=classic;html=1;rounded=0;fontSize=12;startSize=8;endSize=8;curved=1;strokeWidth=4;fillColor=#fff2cc;strokeColor=#d6b656;" edge="1" parent="1">
          <mxGeometry width="50" height="50" relative="1" as="geometry">
            <mxPoint x="-86" y="142" as="sourcePoint" />
            <mxPoint x="-29" y="142" as="targetPoint" />
          </mxGeometry>
        </mxCell>
        <mxCell id="mxc4Yf017uCKnpSmPSiX-47" value="时间编码" style="text;html=1;align=center;verticalAlign=middle;whiteSpace=wrap;rounded=0;fontFamily=Helvetica;fontSize=11;fontColor=default;labelBackgroundColor=default;" vertex="1" parent="1">
          <mxGeometry x="-93" y="105" width="74" height="30" as="geometry" />
        </mxCell>
      </root>
    </mxGraphModel>
  </diagram>
  <diagram id="Qid5PyRUgntwXr0jtswa" name="第 3 页">
    <mxGraphModel dx="1215" dy="753" grid="1" gridSize="10" guides="1" tooltips="1" connect="1" arrows="1" fold="1" page="1" pageScale="1" pageWidth="827" pageHeight="1169" math="0" shadow="0">
      <root>
        <mxCell id="0" />
        <mxCell id="1" parent="0" />
        <mxCell id="GwibWUbFSRIL9rr0LCQw-1" value="" style="rounded=1;whiteSpace=wrap;html=1;dashed=1;dashPattern=1 2;fillColor=#f5f5f5;strokeColor=#666666;fontColor=#333333;" vertex="1" parent="1">
          <mxGeometry x="23" y="183.5" width="327" height="87" as="geometry" />
        </mxCell>
        <mxCell id="GwibWUbFSRIL9rr0LCQw-2" value="" style="rounded=1;whiteSpace=wrap;html=1;dashed=1;dashPattern=1 2;fillColor=#d5e8d4;strokeColor=#82b366;" vertex="1" parent="1">
          <mxGeometry x="23" y="86.5" width="327" height="87" as="geometry" />
        </mxCell>
        <mxCell id="GwibWUbFSRIL9rr0LCQw-3" value="RNN" style="ellipse;whiteSpace=wrap;html=1;aspect=fixed;fillColor=#b0e3e6;strokeColor=#0e8088;" vertex="1" parent="1">
          <mxGeometry x="70" y="117.5" width="25" height="25" as="geometry" />
        </mxCell>
        <mxCell id="GwibWUbFSRIL9rr0LCQw-4" value="RNN" style="ellipse;whiteSpace=wrap;html=1;aspect=fixed;fillColor=#b0e3e6;strokeColor=#0e8088;" vertex="1" parent="1">
          <mxGeometry x="130" y="117.5" width="25" height="25" as="geometry" />
        </mxCell>
        <mxCell id="GwibWUbFSRIL9rr0LCQw-5" value="RNN" style="ellipse;whiteSpace=wrap;html=1;aspect=fixed;fillColor=#b0e3e6;strokeColor=#0e8088;" vertex="1" parent="1">
          <mxGeometry x="190" y="117.5" width="25" height="25" as="geometry" />
        </mxCell>
        <mxCell id="GwibWUbFSRIL9rr0LCQw-6" value="RNN" style="ellipse;whiteSpace=wrap;html=1;aspect=fixed;fillColor=#b0e3e6;strokeColor=#0e8088;" vertex="1" parent="1">
          <mxGeometry x="310" y="117.5" width="25" height="25" as="geometry" />
        </mxCell>
        <mxCell id="GwibWUbFSRIL9rr0LCQw-7" value="..." style="text;html=1;align=center;verticalAlign=middle;whiteSpace=wrap;rounded=0;fontFamily=Helvetica;fontSize=11;fontColor=default;labelBackgroundColor=none;" vertex="1" parent="1">
          <mxGeometry x="230" y="112.5" width="60" height="30" as="geometry" />
        </mxCell>
        <mxCell id="GwibWUbFSRIL9rr0LCQw-8" style="edgeStyle=orthogonalEdgeStyle;rounded=0;orthogonalLoop=1;jettySize=auto;html=1;endArrow=classicThin;endFill=1;" edge="1" parent="1">
          <mxGeometry relative="1" as="geometry">
            <mxPoint x="65" y="130.19" as="targetPoint" />
            <mxPoint x="40" y="129.82" as="sourcePoint" />
          </mxGeometry>
        </mxCell>
        <mxCell id="GwibWUbFSRIL9rr0LCQw-9" style="edgeStyle=orthogonalEdgeStyle;rounded=0;orthogonalLoop=1;jettySize=auto;html=1;endArrow=classicThin;endFill=1;" edge="1" parent="1">
          <mxGeometry relative="1" as="geometry">
            <mxPoint x="125" y="130.37" as="targetPoint" />
            <mxPoint x="100" y="130" as="sourcePoint" />
          </mxGeometry>
        </mxCell>
        <mxCell id="GwibWUbFSRIL9rr0LCQw-10" style="edgeStyle=orthogonalEdgeStyle;rounded=0;orthogonalLoop=1;jettySize=auto;html=1;endArrow=classicThin;endFill=1;" edge="1" parent="1">
          <mxGeometry relative="1" as="geometry">
            <mxPoint x="185" y="130.19" as="targetPoint" />
            <mxPoint x="160" y="129.82" as="sourcePoint" />
          </mxGeometry>
        </mxCell>
        <mxCell id="GwibWUbFSRIL9rr0LCQw-11" style="edgeStyle=orthogonalEdgeStyle;rounded=0;orthogonalLoop=1;jettySize=auto;html=1;endArrow=classicThin;endFill=1;" edge="1" parent="1">
          <mxGeometry relative="1" as="geometry">
            <mxPoint x="245" y="130.37" as="targetPoint" />
            <mxPoint x="220" y="130" as="sourcePoint" />
          </mxGeometry>
        </mxCell>
        <mxCell id="GwibWUbFSRIL9rr0LCQw-12" style="edgeStyle=orthogonalEdgeStyle;rounded=0;orthogonalLoop=1;jettySize=auto;html=1;endArrow=classicThin;endFill=1;" edge="1" parent="1">
          <mxGeometry relative="1" as="geometry">
            <mxPoint x="305" y="130.17000000000002" as="targetPoint" />
            <mxPoint x="280" y="129.8" as="sourcePoint" />
          </mxGeometry>
        </mxCell>
        <mxCell id="GwibWUbFSRIL9rr0LCQw-13" value="时间编码器" style="text;html=1;align=center;verticalAlign=middle;whiteSpace=wrap;rounded=0;fontFamily=Helvetica;fontSize=11;fontColor=default;labelBackgroundColor=none;" vertex="1" parent="1">
          <mxGeometry x="23" y="87.5" width="60" height="30" as="geometry" />
        </mxCell>
        <mxCell id="GwibWUbFSRIL9rr0LCQw-14" value="结构编码器" style="text;html=1;align=center;verticalAlign=middle;whiteSpace=wrap;rounded=0;fontFamily=Helvetica;fontSize=11;fontColor=default;labelBackgroundColor=none;" vertex="1" parent="1">
          <mxGeometry x="23" y="179" width="60" height="30" as="geometry" />
        </mxCell>
        <mxCell id="GwibWUbFSRIL9rr0LCQw-15" style="rounded=0;orthogonalLoop=1;jettySize=auto;html=1;entryX=0;entryY=0;entryDx=0;entryDy=0;fontSize=12;startSize=8;endSize=8;endArrow=none;endFill=0;" edge="1" parent="1" source="GwibWUbFSRIL9rr0LCQw-16" target="GwibWUbFSRIL9rr0LCQw-17">
          <mxGeometry relative="1" as="geometry" />
        </mxCell>
        <mxCell id="GwibWUbFSRIL9rr0LCQw-16" value="" style="ellipse;whiteSpace=wrap;html=1;aspect=fixed;fillColor=none;strokeColor=default;" vertex="1" parent="1">
          <mxGeometry x="135" y="199.5" width="15" height="15" as="geometry" />
        </mxCell>
        <mxCell id="GwibWUbFSRIL9rr0LCQw-17" value="" style="ellipse;whiteSpace=wrap;html=1;aspect=fixed;" vertex="1" parent="1">
          <mxGeometry x="110.5" y="214.5" width="15" height="15" as="geometry" />
        </mxCell>
        <mxCell id="GwibWUbFSRIL9rr0LCQw-18" value="" style="ellipse;whiteSpace=wrap;html=1;aspect=fixed;" vertex="1" parent="1">
          <mxGeometry x="159.5" y="214.5" width="15" height="15" as="geometry" />
        </mxCell>
        <mxCell id="GwibWUbFSRIL9rr0LCQw-19" value="" style="ellipse;whiteSpace=wrap;html=1;aspect=fixed;fillColor=none;strokeColor=default;" vertex="1" parent="1">
          <mxGeometry x="125.5" y="243.5" width="15" height="15" as="geometry" />
        </mxCell>
        <mxCell id="GwibWUbFSRIL9rr0LCQw-20" value="" style="ellipse;whiteSpace=wrap;html=1;aspect=fixed;" vertex="1" parent="1">
          <mxGeometry x="148.5" y="238.5" width="15" height="15" as="geometry" />
        </mxCell>
        <mxCell id="GwibWUbFSRIL9rr0LCQw-21" style="rounded=0;orthogonalLoop=1;jettySize=auto;html=1;entryX=0;entryY=0;entryDx=0;entryDy=0;fontSize=12;startSize=8;endSize=8;endArrow=none;endFill=0;exitX=0.5;exitY=1;exitDx=0;exitDy=0;" edge="1" parent="1" source="GwibWUbFSRIL9rr0LCQw-17" target="GwibWUbFSRIL9rr0LCQw-19">
          <mxGeometry relative="1" as="geometry">
            <mxPoint x="118.5" y="227.5" as="sourcePoint" />
            <mxPoint x="127.5" y="235.5" as="targetPoint" />
          </mxGeometry>
        </mxCell>
        <mxCell id="GwibWUbFSRIL9rr0LCQw-22" style="rounded=0;orthogonalLoop=1;jettySize=auto;html=1;entryX=0.5;entryY=1;entryDx=0;entryDy=0;fontSize=12;startSize=8;endSize=8;endArrow=none;endFill=0;exitX=0.5;exitY=0;exitDx=0;exitDy=0;" edge="1" parent="1" source="GwibWUbFSRIL9rr0LCQw-20" target="GwibWUbFSRIL9rr0LCQw-18">
          <mxGeometry relative="1" as="geometry">
            <mxPoint x="160.5" y="234.5" as="sourcePoint" />
            <mxPoint x="124.5" y="260.5" as="targetPoint" />
          </mxGeometry>
        </mxCell>
        <mxCell id="GwibWUbFSRIL9rr0LCQw-23" style="rounded=0;orthogonalLoop=1;jettySize=auto;html=1;entryX=0;entryY=0;entryDx=0;entryDy=0;fontSize=12;startSize=8;endSize=8;endArrow=none;endFill=0;" edge="1" parent="1" source="GwibWUbFSRIL9rr0LCQw-17" target="GwibWUbFSRIL9rr0LCQw-20">
          <mxGeometry relative="1" as="geometry">
            <mxPoint x="148.5" y="235.5" as="sourcePoint" />
            <mxPoint x="163.5" y="261.5" as="targetPoint" />
          </mxGeometry>
        </mxCell>
        <mxCell id="GwibWUbFSRIL9rr0LCQw-24" style="rounded=0;orthogonalLoop=1;jettySize=auto;html=1;entryX=0;entryY=0;entryDx=0;entryDy=0;fontSize=12;startSize=8;endSize=8;endArrow=none;endFill=0;exitX=1;exitY=1;exitDx=0;exitDy=0;" edge="1" parent="1" source="GwibWUbFSRIL9rr0LCQw-16" target="GwibWUbFSRIL9rr0LCQw-18">
          <mxGeometry relative="1" as="geometry">
            <mxPoint x="162.5" y="208.5" as="sourcePoint" />
            <mxPoint x="214.5" y="230.5" as="targetPoint" />
          </mxGeometry>
        </mxCell>
        <mxCell id="GwibWUbFSRIL9rr0LCQw-25" style="rounded=0;orthogonalLoop=1;jettySize=auto;html=1;entryX=0;entryY=0;entryDx=0;entryDy=0;fontSize=12;startSize=8;endSize=8;endArrow=none;endFill=0;exitX=0;exitY=0.5;exitDx=0;exitDy=0;" edge="1" parent="1" source="GwibWUbFSRIL9rr0LCQw-27" target="GwibWUbFSRIL9rr0LCQw-26">
          <mxGeometry relative="1" as="geometry">
            <mxPoint x="203.30901415468963" y="199.13066247268466" as="sourcePoint" />
          </mxGeometry>
        </mxCell>
        <mxCell id="GwibWUbFSRIL9rr0LCQw-26" value="" style="ellipse;whiteSpace=wrap;html=1;aspect=fixed;" vertex="1" parent="1">
          <mxGeometry x="190" y="204.5" width="15" height="15" as="geometry" />
        </mxCell>
        <mxCell id="GwibWUbFSRIL9rr0LCQw-27" value="" style="ellipse;whiteSpace=wrap;html=1;aspect=fixed;" vertex="1" parent="1">
          <mxGeometry x="215" y="204.5" width="15" height="15" as="geometry" />
        </mxCell>
        <mxCell id="GwibWUbFSRIL9rr0LCQw-28" value="" style="ellipse;whiteSpace=wrap;html=1;aspect=fixed;fillColor=none;strokeColor=default;" vertex="1" parent="1">
          <mxGeometry x="192" y="233.5" width="15" height="15" as="geometry" />
        </mxCell>
        <mxCell id="GwibWUbFSRIL9rr0LCQw-29" value="" style="ellipse;whiteSpace=wrap;html=1;aspect=fixed;" vertex="1" parent="1">
          <mxGeometry x="215" y="228.5" width="15" height="15" as="geometry" />
        </mxCell>
        <mxCell id="GwibWUbFSRIL9rr0LCQw-30" style="rounded=0;orthogonalLoop=1;jettySize=auto;html=1;entryX=0;entryY=0;entryDx=0;entryDy=0;fontSize=12;startSize=8;endSize=8;endArrow=none;endFill=0;exitX=0.5;exitY=1;exitDx=0;exitDy=0;" edge="1" parent="1" source="GwibWUbFSRIL9rr0LCQw-26" target="GwibWUbFSRIL9rr0LCQw-28">
          <mxGeometry relative="1" as="geometry">
            <mxPoint x="185" y="217.5" as="sourcePoint" />
            <mxPoint x="194" y="225.5" as="targetPoint" />
          </mxGeometry>
        </mxCell>
        <mxCell id="GwibWUbFSRIL9rr0LCQw-31" style="rounded=0;orthogonalLoop=1;jettySize=auto;html=1;entryX=0.5;entryY=1;entryDx=0;entryDy=0;fontSize=12;startSize=8;endSize=8;endArrow=none;endFill=0;exitX=0.5;exitY=0;exitDx=0;exitDy=0;" edge="1" parent="1" source="GwibWUbFSRIL9rr0LCQw-29" target="GwibWUbFSRIL9rr0LCQw-27">
          <mxGeometry relative="1" as="geometry">
            <mxPoint x="227" y="224.5" as="sourcePoint" />
            <mxPoint x="191" y="250.5" as="targetPoint" />
          </mxGeometry>
        </mxCell>
        <mxCell id="GwibWUbFSRIL9rr0LCQw-32" style="rounded=0;orthogonalLoop=1;jettySize=auto;html=1;entryX=0;entryY=0;entryDx=0;entryDy=0;fontSize=12;startSize=8;endSize=8;endArrow=none;endFill=0;" edge="1" parent="1" source="GwibWUbFSRIL9rr0LCQw-26" target="GwibWUbFSRIL9rr0LCQw-29">
          <mxGeometry relative="1" as="geometry">
            <mxPoint x="215" y="225.5" as="sourcePoint" />
            <mxPoint x="230" y="251.5" as="targetPoint" />
          </mxGeometry>
        </mxCell>
        <mxCell id="GwibWUbFSRIL9rr0LCQw-33" style="rounded=0;orthogonalLoop=1;jettySize=auto;html=1;entryX=0;entryY=0;entryDx=0;entryDy=0;fontSize=12;startSize=8;endSize=8;endArrow=none;endFill=0;" edge="1" parent="1" source="GwibWUbFSRIL9rr0LCQw-34" target="GwibWUbFSRIL9rr0LCQw-35">
          <mxGeometry relative="1" as="geometry" />
        </mxCell>
        <mxCell id="GwibWUbFSRIL9rr0LCQw-34" value="" style="ellipse;whiteSpace=wrap;html=1;aspect=fixed;fillColor=none;strokeColor=default;" vertex="1" parent="1">
          <mxGeometry x="65" y="209" width="15" height="15" as="geometry" />
        </mxCell>
        <mxCell id="GwibWUbFSRIL9rr0LCQw-35" value="" style="ellipse;whiteSpace=wrap;html=1;aspect=fixed;" vertex="1" parent="1">
          <mxGeometry x="40" y="224" width="15" height="15" as="geometry" />
        </mxCell>
        <mxCell id="GwibWUbFSRIL9rr0LCQw-36" value="" style="ellipse;whiteSpace=wrap;html=1;aspect=fixed;" vertex="1" parent="1">
          <mxGeometry x="89" y="224" width="15" height="15" as="geometry" />
        </mxCell>
        <mxCell id="GwibWUbFSRIL9rr0LCQw-37" style="rounded=0;orthogonalLoop=1;jettySize=auto;html=1;entryX=0;entryY=0;entryDx=0;entryDy=0;fontSize=12;startSize=8;endSize=8;endArrow=none;endFill=0;exitX=1;exitY=1;exitDx=0;exitDy=0;" edge="1" parent="1" source="GwibWUbFSRIL9rr0LCQw-34" target="GwibWUbFSRIL9rr0LCQw-36">
          <mxGeometry relative="1" as="geometry">
            <mxPoint x="92" y="218" as="sourcePoint" />
            <mxPoint x="144" y="240" as="targetPoint" />
          </mxGeometry>
        </mxCell>
        <mxCell id="GwibWUbFSRIL9rr0LCQw-38" style="rounded=0;orthogonalLoop=1;jettySize=auto;html=1;entryX=0;entryY=0;entryDx=0;entryDy=0;fontSize=12;startSize=8;endSize=8;endArrow=none;endFill=0;" edge="1" parent="1" source="GwibWUbFSRIL9rr0LCQw-39" target="GwibWUbFSRIL9rr0LCQw-40">
          <mxGeometry relative="1" as="geometry" />
        </mxCell>
        <mxCell id="GwibWUbFSRIL9rr0LCQw-39" value="" style="ellipse;whiteSpace=wrap;html=1;aspect=fixed;fillColor=none;strokeColor=default;" vertex="1" parent="1">
          <mxGeometry x="306" y="204.5" width="15" height="15" as="geometry" />
        </mxCell>
        <mxCell id="GwibWUbFSRIL9rr0LCQw-40" value="" style="ellipse;whiteSpace=wrap;html=1;aspect=fixed;" vertex="1" parent="1">
          <mxGeometry x="280" y="219.5" width="15" height="15" as="geometry" />
        </mxCell>
        <mxCell id="GwibWUbFSRIL9rr0LCQw-41" value="" style="ellipse;whiteSpace=wrap;html=1;aspect=fixed;" vertex="1" parent="1">
          <mxGeometry x="329" y="219.5" width="15" height="15" as="geometry" />
        </mxCell>
        <mxCell id="GwibWUbFSRIL9rr0LCQw-42" value="" style="ellipse;whiteSpace=wrap;html=1;aspect=fixed;" vertex="1" parent="1">
          <mxGeometry x="306" y="243.5" width="15" height="15" as="geometry" />
        </mxCell>
        <mxCell id="GwibWUbFSRIL9rr0LCQw-43" style="rounded=0;orthogonalLoop=1;jettySize=auto;html=1;entryX=0.5;entryY=1;entryDx=0;entryDy=0;fontSize=12;startSize=8;endSize=8;endArrow=none;endFill=0;exitX=0.5;exitY=0;exitDx=0;exitDy=0;" edge="1" parent="1" source="GwibWUbFSRIL9rr0LCQw-42" target="GwibWUbFSRIL9rr0LCQw-41">
          <mxGeometry relative="1" as="geometry">
            <mxPoint x="330" y="239.5" as="sourcePoint" />
            <mxPoint x="294" y="265.5" as="targetPoint" />
          </mxGeometry>
        </mxCell>
        <mxCell id="GwibWUbFSRIL9rr0LCQw-44" style="rounded=0;orthogonalLoop=1;jettySize=auto;html=1;entryX=0;entryY=0;entryDx=0;entryDy=0;fontSize=12;startSize=8;endSize=8;endArrow=none;endFill=0;" edge="1" parent="1" source="GwibWUbFSRIL9rr0LCQw-40" target="GwibWUbFSRIL9rr0LCQw-42">
          <mxGeometry relative="1" as="geometry">
            <mxPoint x="318" y="240.5" as="sourcePoint" />
            <mxPoint x="333" y="266.5" as="targetPoint" />
          </mxGeometry>
        </mxCell>
        <mxCell id="GwibWUbFSRIL9rr0LCQw-45" style="rounded=0;orthogonalLoop=1;jettySize=auto;html=1;entryX=0;entryY=0;entryDx=0;entryDy=0;fontSize=12;startSize=8;endSize=8;endArrow=none;endFill=0;exitX=1;exitY=1;exitDx=0;exitDy=0;" edge="1" parent="1" source="GwibWUbFSRIL9rr0LCQw-39" target="GwibWUbFSRIL9rr0LCQw-41">
          <mxGeometry relative="1" as="geometry">
            <mxPoint x="332" y="213.5" as="sourcePoint" />
            <mxPoint x="384" y="235.5" as="targetPoint" />
          </mxGeometry>
        </mxCell>
        <mxCell id="GwibWUbFSRIL9rr0LCQw-46" style="edgeStyle=orthogonalEdgeStyle;rounded=0;orthogonalLoop=1;jettySize=auto;html=1;endArrow=classicThin;endFill=1;" edge="1" parent="1">
          <mxGeometry relative="1" as="geometry">
            <mxPoint x="82.21" y="144.37" as="targetPoint" />
            <mxPoint x="82.71" y="194" as="sourcePoint" />
            <Array as="points">
              <mxPoint x="82.21" y="184" />
            </Array>
          </mxGeometry>
        </mxCell>
        <mxCell id="GwibWUbFSRIL9rr0LCQw-47" style="edgeStyle=orthogonalEdgeStyle;rounded=0;orthogonalLoop=1;jettySize=auto;html=1;endArrow=classicThin;endFill=1;" edge="1" parent="1">
          <mxGeometry relative="1" as="geometry">
            <mxPoint x="143.71" y="142.5" as="targetPoint" />
            <mxPoint x="144.21" y="192.13" as="sourcePoint" />
            <Array as="points">
              <mxPoint x="143.71" y="182.13" />
            </Array>
          </mxGeometry>
        </mxCell>
        <mxCell id="GwibWUbFSRIL9rr0LCQw-48" style="edgeStyle=orthogonalEdgeStyle;rounded=0;orthogonalLoop=1;jettySize=auto;html=1;endArrow=classicThin;endFill=1;" edge="1" parent="1">
          <mxGeometry relative="1" as="geometry">
            <mxPoint x="202.21" y="144.37" as="targetPoint" />
            <mxPoint x="202.71" y="194" as="sourcePoint" />
            <Array as="points">
              <mxPoint x="202.21" y="184" />
            </Array>
          </mxGeometry>
        </mxCell>
        <mxCell id="GwibWUbFSRIL9rr0LCQw-49" style="edgeStyle=orthogonalEdgeStyle;rounded=0;orthogonalLoop=1;jettySize=auto;html=1;endArrow=classicThin;endFill=1;" edge="1" parent="1">
          <mxGeometry relative="1" as="geometry">
            <mxPoint x="322.21" y="142.5" as="targetPoint" />
            <mxPoint x="322.71" y="192.13" as="sourcePoint" />
            <Array as="points">
              <mxPoint x="322.21" y="182.13" />
            </Array>
          </mxGeometry>
        </mxCell>
        <mxCell id="GwibWUbFSRIL9rr0LCQw-50" value="&lt;svg style=&quot;vertical-align: -0.375ex;&quot; xmlns:xlink=&quot;http://www.w3.org/1999/xlink&quot; viewBox=&quot;0 -705 1222.6 870.6&quot; role=&quot;img&quot; height=&quot;1.97ex&quot; width=&quot;2.766ex&quot; xmlns=&quot;http://www.w3.org/2000/svg&quot;&gt;&lt;defs&gt;&lt;path d=&quot;M50 252Q50 367 117 473T286 641T490 704Q580 704 633 653Q642 643 648 636T656 626L657 623Q660 623 684 649Q691 655 699 663T715 679T725 690L740 705H746Q760 705 760 698Q760 694 728 561Q692 422 692 421Q690 416 687 415T669 413H653Q647 419 647 422Q647 423 648 429T650 449T651 481Q651 552 619 605T510 659Q492 659 471 656T418 643T357 615T294 567T236 496T189 394T158 260Q156 242 156 221Q156 173 170 136T206 79T256 45T308 28T353 24Q407 24 452 47T514 106Q517 114 529 161T541 214Q541 222 528 224T468 227H431Q425 233 425 235T427 254Q431 267 437 273H454Q494 271 594 271Q634 271 659 271T695 272T707 272Q721 272 721 263Q721 261 719 249Q714 230 709 228Q706 227 694 227Q674 227 653 224Q646 221 643 215T629 164Q620 131 614 108Q589 6 586 3Q584 1 581 1Q571 1 553 21T530 52Q530 53 528 52T522 47Q448 -22 322 -22Q201 -22 126 55T50 252Z&quot; id=&quot;MJX-2-TEX-I-1D43A&quot;&gt;&lt;/path&gt;&lt;path d=&quot;M96 585Q152 666 249 666Q297 666 345 640T423 548Q460 465 460 320Q460 165 417 83Q397 41 362 16T301 -15T250 -22Q224 -22 198 -16T137 16T82 83Q39 165 39 320Q39 494 96 585ZM321 597Q291 629 250 629Q208 629 178 597Q153 571 145 525T137 333Q137 175 145 125T181 46Q209 16 250 16Q290 16 318 46Q347 76 354 130T362 333Q362 478 354 524T321 597Z&quot; id=&quot;MJX-2-TEX-N-30&quot;&gt;&lt;/path&gt;&lt;/defs&gt;&lt;g transform=&quot;scale(1,-1)&quot; stroke-width=&quot;0&quot; fill=&quot;currentColor&quot; stroke=&quot;currentColor&quot;&gt;&lt;g data-mml-node=&quot;math&quot;&gt;&lt;g data-mml-node=&quot;msub&quot;&gt;&lt;g data-mml-node=&quot;mi&quot;&gt;&lt;use xlink:href=&quot;#MJX-2-TEX-I-1D43A&quot; data-c=&quot;1D43A&quot;&gt;&lt;/use&gt;&lt;/g&gt;&lt;g transform=&quot;translate(819,-150) scale(0.707)&quot; data-mml-node=&quot;mn&quot;&gt;&lt;use xlink:href=&quot;#MJX-2-TEX-N-30&quot; data-c=&quot;30&quot;&gt;&lt;/use&gt;&lt;/g&gt;&lt;/g&gt;&lt;/g&gt;&lt;/g&gt;&lt;/svg&gt;" style="text;html=1;align=center;verticalAlign=middle;whiteSpace=wrap;rounded=0;fontFamily=Helvetica;fontSize=11;fontColor=default;labelBackgroundColor=none;" vertex="1" parent="1">
          <mxGeometry x="40" y="149" width="60" height="30" as="geometry" />
        </mxCell>
        <mxCell id="GwibWUbFSRIL9rr0LCQw-51" value="$$G_1$$" style="text;html=1;align=center;verticalAlign=middle;whiteSpace=wrap;rounded=0;fontFamily=Helvetica;fontSize=11;fontColor=default;labelBackgroundColor=none;" vertex="1" parent="1">
          <mxGeometry x="99.5" y="149" width="60" height="30" as="geometry" />
        </mxCell>
        <mxCell id="GwibWUbFSRIL9rr0LCQw-52" value="$$G_2$$" style="text;html=1;align=center;verticalAlign=middle;whiteSpace=wrap;rounded=0;fontFamily=Helvetica;fontSize=11;fontColor=default;labelBackgroundColor=none;" vertex="1" parent="1">
          <mxGeometry x="159.5" y="149" width="60" height="30" as="geometry" />
        </mxCell>
        <mxCell id="GwibWUbFSRIL9rr0LCQw-53" value="$$G_t$$" style="text;html=1;align=center;verticalAlign=middle;whiteSpace=wrap;rounded=0;fontFamily=Helvetica;fontSize=11;fontColor=default;labelBackgroundColor=none;" vertex="1" parent="1">
          <mxGeometry x="280" y="149" width="60" height="30" as="geometry" />
        </mxCell>
      </root>
    </mxGraphModel>
  </diagram>
</mxfile>
